<?xml version="1.0" encoding="UTF-8"?>
<svg id="Layer_1" data-name="Layer 1" xmlns="http://www.w3.org/2000/svg" viewBox="0 0 541.63315 344.37579">
  <defs>
    <style>
      .cls-1 {
        fill: #fff;
      }

      .cls-2 {
        fill: #76b900;
      }
    </style>
  </defs>
  <polygon class="cls-2" points="453.87984 344.37579 0 344.37579 0 0 541.63315 0 453.87984 344.37579"/>
  <g>
    <path id="Eye_Mark" data-name="Eye Mark" class="cls-1" d="M83.86023,83.35497v-5.84815c.5678-.04046,1.14125-.07072,1.72562-.08902,15.99506-.50273,26.4885,13.74347,26.4885,13.74347,0,0-11.33355,15.74176-23.48546,15.74176-1.75026,0-3.3165-.28215-4.72866-.75603v-17.73371c6.22702,.75217,7.47876,3.5026,11.22342,9.74269l8.32597-7.02003s-6.07752-7.9713-16.32296-7.9713c-1.11488,0-2.18018,.07879-3.22643,.19032m0-19.31862v8.73544c.57414-.04539,1.14899-.08196,1.72562-.10271,22.24355-.74936,36.73462,18.24207,36.73462,18.24207,0,0-16.64521,20.24036-33.98556,20.24036-1.58879,0-3.0766-.1467-4.47468-.39405v5.39959c1.19579,.15199,2.4338,.24133,3.72636,.24133,16.13754,0,27.8071-8.24045,39.10794-17.99439,1.87235,1.50012,9.54323,5.14946,11.12075,6.74913-10.74537,8.99439-35.7851,16.24414-49.98065,16.24414-1.36785,0-2.6836-.08268-3.97439-.2065v7.58853h61.33463V64.03636h-61.33463Zm0,42.11066v4.61046c-14.92521-2.66109-19.06781-18.17593-19.06781-18.17593,0,0,7.16603-7.94,19.06781-9.22657v5.05833c-.00915,0-.01513-.00245-.02324-.00245-6.24533-.75008-11.12529,5.08542-11.12529,5.08542,0,0,2.73389,9.82358,11.14853,12.65075m-26.50892-14.23777s8.84593-13.05286,26.50892-14.40241v-4.73503c-19.56348,1.57013-36.50528,18.13936-36.50528,18.13936,0,0,9.59493,27.73991,36.50528,30.27963v-5.03372c-19.7475-2.48449-26.50892-24.24783-26.50892-24.24783Z"/>
    <path id="NVIDIA" class="cls-1" d="M255.67506,76.27025l.00427,42.49651h12.00148v-42.49578l-12.00575-.00073Zm-94.41374-.05775v42.55426h12.10858v-32.31201l9.3803,.00321c3.1074,0,5.3204,.77321,6.81775,2.37091,1.89842,2.023,2.67323,5.28404,2.67323,11.25215v18.68574l11.72999-.00214,.00214-23.50883c0-16.78039-10.69639-19.04329-21.16039-19.04329h-21.5516m113.73828,.05917v42.49509h19.4664c10.37165,0,13.75673-1.72499,17.41773-5.59238,2.58803-2.71492,4.25987-8.67485,4.25987-15.18802,0-5.97307-1.41519-11.30205-3.88451-14.62047-4.44629-5.93423-10.85218-7.09423-20.41533-7.09423h-16.84416Zm11.90519,9.25305h5.16033c7.48634,0,12.328,3.3619,12.328,12.08485,0,8.72511-4.84166,12.08701-12.328,12.08701h-5.16033v-24.17186Zm-48.53412-9.25305l-10.01641,33.67982-9.59794-33.67766-12.95571-.00215,13.70716,42.49509h17.29797l13.81484-42.49509h-12.24992Zm83.35783,42.49509h12.0036v-42.49294l-12.00644-.00215,.00285,42.49509Zm33.64488-42.47976l-16.759,42.46512h11.8343l2.65144-7.50558h19.83358l2.50995,7.50558h12.84879l-16.88694-42.46866-16.03211,.00354Zm7.79074,7.7473l7.27032,19.89417h-14.7702l7.49988-19.89417Z"/>
  </g>
  <g>
    <path class="cls-1" d="M130.39787,281.50377c-19.66529,0-34.57219-5.3163-44.70888-15.9489-10.14259-10.6326-15.21389-26.21252-15.21389-46.74271v-7.74273c0-13.27747,2.30245-24.64508,6.91326-34.1117,4.61081-9.46366,11.21707-16.71639,19.8247-21.75816,8.60172-5.03883,18.80335-7.55971,30.60489-7.55971h2.03088c12.04359,0,22.24522,2.58288,30.60489,7.74568,8.35967,5.1628,14.32243,12.66053,17.88827,22.49318l-19.36421,6.82175c-4.05586-12.41257-13.82651-18.62034-29.31788-18.62034h-1.65895c-11.55358,0-20.49772,3.86989-26.82651,11.61557-6.33469,7.74273-9.49318,18.74727-9.49318,33.00475v8.66666c0,29.13191,12.84059,43.69934,38.53359,43.69934h1.65895c5.53179,0,10.72706-.52248,15.57992-1.56744,4.85876-1.04496,9.06812-2.55041,12.63396-4.5193v-29.68391h-30.05584l2.39691-17.70231h47.93821v57.52881c-5.77974,4.54882-12.78156,8.08219-21.01725,10.60308-8.23569,2.51794-17.27429,3.77838-27.10398,3.77838h-1.84786Z"/>
    <path class="cls-1" d="M230.51908,279.10686v-110.8158h-40.01542v-18.25431h101.2311v18.25431h-40.01542v110.8158h-21.20026Z"/>
    <path class="cls-1" d="M354.23746,281.50377c-18.5613,0-32.72433-5.53179-42.50089-16.59536-9.77066-11.06357-14.65894-26.61102-14.65894-46.64825v-7.74568c0-12.90553,2.27884-24.06062,6.8247-33.46524,4.54587-9.40168,11.09309-16.6544,19.63578-21.75816,8.54268-5.09786,18.77974-7.65122,30.69935-7.65122h1.84786c12.41553,0,22.80017,2.79836,31.15984,8.38919,8.35967,5.59673,14.25749,13.49295,17.69936,23.69458l-19.54132,6.82175c-2.09582-6.88374-5.69119-12.01407-10.7861-15.3969-5.10672-3.37988-11.28201-5.06834-18.53178-5.06834h-1.65895c-11.31153,0-20.16121,3.74886-26.55494,11.24659-6.39373,7.49773-9.58764,18.43732-9.58764,32.81879v8.66666c0,14.75045,3.10536,25.81402,9.31017,33.19072,6.21071,7.37375,15.14895,11.06357,26.83241,11.06357h1.65895c7.49182,0,13.88555-1.6619,19.17529-4.97979,5.28383-3.31789,8.96775-8.29768,11.06357-14.93346l19.17529,7.37375c-3.56585,9.8356-9.62307,17.4573-18.15985,22.86511-8.54859,5.41076-18.96275,8.11171-31.2543,8.11171h-1.84786Z"/>
  </g>
</svg>